<svg width="500" height="200" viewBox="0 0 500 200" fill="none" xmlns="http://www.w3.org/2000/svg">
<g clip-path="url(#clip0_344_248)">
<path d="M96.5415 135.413C96.5415 137.861 94.5567 139.854 92.1084 139.863C89.6601 139.872 87.6753 137.895 87.6753 135.447L96.5415 135.413ZM87.6753 135.447L87.6753 30.0168L96.5415 29.9831L96.5415 135.413L87.6753 135.447Z" fill="#F97316"/>
<path d="M121.619 66.6089C123.003 68.629 122.607 71.546 120.735 73.1241C118.863 74.7022 116.224 74.3439 114.841 72.3237L121.619 66.6089ZM114.841 72.3237L89.7861 35.7345L96.5648 30.0196L121.619 66.6089L114.841 72.3237Z" fill="#F97316"/>
<path d="M62.6107 66.605C61.2274 68.6251 61.6235 71.5421 63.4953 73.1202C65.3672 74.6983 68.0061 74.34 69.3893 72.3198L62.6107 66.605ZM69.3893 72.3198L94.4439 35.7305L87.6652 30.0157L62.6107 66.605L69.3893 72.3198Z" fill="#F97316"/>
<path d="M132.373 139.828C131.435 139.828 130.69 139.662 130.138 139.331C129.642 139 129.283 138.559 129.063 138.007C128.897 137.4 128.814 136.711 128.814 135.938V85.5425C128.814 84.8253 128.925 84.2185 129.145 83.722C129.366 83.2255 129.752 82.8393 130.304 82.5634C130.911 82.2324 131.738 82.0669 132.787 82.0669C134 82.0669 134.855 82.1773 135.352 82.3979C135.848 82.6186 136.345 83.0048 136.841 83.5565L167.956 127.58V85.5425C167.956 84.8253 168.039 84.2185 168.204 83.722C168.425 83.2255 168.811 82.8393 169.363 82.5634C169.914 82.2324 170.714 82.0669 171.763 82.0669C172.756 82.0669 173.5 82.2324 173.997 82.5634C174.548 82.8945 174.907 83.3634 175.073 83.9702C175.293 84.5219 175.404 85.1563 175.404 85.8735V136.021C175.404 136.738 175.266 137.4 174.99 138.007C174.769 138.559 174.355 139 173.749 139.331C173.197 139.662 172.397 139.828 171.349 139.828C170.466 139.828 169.721 139.717 169.114 139.497C168.563 139.276 168.039 138.862 167.542 138.255L136.262 94.5624V136.021C136.262 136.738 136.152 137.4 135.931 138.007C135.71 138.559 135.324 139 134.773 139.331C134.221 139.662 133.421 139.828 132.373 139.828Z" fill="black"/>
<mask id="mask0_344_248" style="mask-type:luminance" maskUnits="userSpaceOnUse" x="195" y="98" width="51" height="42">
<path d="M195.709 98.457H245.23V139.492H195.709V98.457Z" fill="white"/>
</mask>
<g mask="url(#mask0_344_248)">
<path d="M213.042 139.441C208.598 139.441 204.153 139.464 199.705 139.428C197.989 139.415 196.527 138.304 196.04 136.819C195.494 135.154 195.93 133.315 197.381 132.415C198.202 131.906 199.305 131.644 200.284 131.636C208.296 131.574 216.306 131.627 224.319 131.586C230.563 131.554 235.494 127.44 236.729 121.35C238.247 113.866 232.494 106.666 224.808 106.547C219.278 106.461 213.746 106.53 208.216 106.523C206.514 106.522 205.235 105.773 204.456 104.255C203.758 102.891 203.76 101.399 204.808 100.361C205.651 99.5234 206.953 98.682 208.066 98.6622C214.211 98.5588 220.379 98.4144 226.503 98.8397C235.241 99.4478 242.508 106.102 244.401 114.618C247.218 127.286 237.677 139.299 224.671 139.436C220.798 139.476 216.92 139.441 213.042 139.441Z" fill="black"/>
</g>
<mask id="mask1_344_248" style="mask-type:luminance" maskUnits="userSpaceOnUse" x="187" y="82" width="42" height="42">
<path d="M187.23 82H228.61V123.217H187.23V82Z" fill="white"/>
</mask>
<g mask="url(#mask1_344_248)">
<path d="M216.861 122.686C213.047 122.686 209.187 123.046 205.43 122.614C196.242 121.562 188.317 113.559 187.349 104.823C186.318 95.5008 192.085 86.597 201.083 83.3737C205.14 81.9214 209.311 81.9108 213.505 82.0648C215.738 82.1471 217.355 83.9738 217.34 86.0009C217.323 88.0254 215.7 89.7552 213.478 89.9371C211.959 90.0605 210.425 89.9822 208.895 89.9928C201.526 90.0446 195.684 95.2831 195.595 102.243C195.504 109.396 201.216 114.68 208.085 114.953C213.642 115.174 219.217 115.026 224.783 115.049C225.437 115.05 226.098 115.046 226.743 115.128C228.943 115.41 230.546 117.205 230.415 119.195C230.283 121.216 228.536 122.905 226.361 122.946C223.196 123.005 220.029 122.961 216.864 122.961C216.864 122.871 216.864 122.778 216.861 122.686Z" fill="#F97316"/>
<ellipse cx="207.487" cy="102.472" rx="7.99142" ry="8.24454" transform="rotate(41.6752 207.487 102.472)" fill="#F97316"/>
<ellipse cx="207.233" cy="102.273" rx="2.35042" ry="2.29015" transform="rotate(41.6752 207.233 102.273)" fill="black"/>
</g>
<ellipse cx="223.005" cy="118.994" rx="7.99142" ry="8.24454" transform="rotate(41.6752 223.005 118.994)" fill="black"/>
<ellipse cx="223.261" cy="118.994" rx="2.35042" ry="2.29015" transform="rotate(41.6752 223.261 118.994)" fill="#F97316"/>
<path d="M259.197 139.828C258.094 139.828 257.267 139.662 256.715 139.331C256.218 139.055 255.887 138.641 255.722 138.09C255.556 137.483 255.474 136.793 255.474 136.021V85.7908C255.474 85.0184 255.556 84.3564 255.722 83.8047C255.943 83.253 256.301 82.8393 256.798 82.5634C257.349 82.2324 258.177 82.0669 259.28 82.0669C260.384 82.0669 261.184 82.2324 261.68 82.5634C262.232 82.8393 262.563 83.253 262.673 83.8047C262.839 84.3564 262.921 85.046 262.921 85.8735V136.104C262.921 136.876 262.839 137.538 262.673 138.09C262.508 138.641 262.149 139.055 261.597 139.331C261.101 139.662 260.301 139.828 259.197 139.828Z" fill="black"/>
<path d="M320.328 139.828C319.28 139.828 318.48 139.662 317.928 139.331C317.432 139.055 317.101 138.641 316.935 138.09C316.77 137.483 316.687 136.793 316.687 136.021V85.7908C316.687 85.0184 316.77 84.3564 316.935 83.8047C317.101 83.253 317.459 82.8393 318.011 82.5634C318.563 82.2324 319.362 82.0669 320.411 82.0669C321.514 82.0669 322.314 82.2324 322.81 82.5634C323.362 82.8393 323.721 83.253 323.886 83.8047C324.052 84.3564 324.134 85.046 324.134 85.8735V136.104C324.134 136.876 324.024 137.538 323.803 138.09C323.638 138.641 323.279 139.055 322.728 139.331C322.231 139.662 321.431 139.828 320.328 139.828ZM283.09 139.828C281.986 139.828 281.159 139.662 280.607 139.331C280.111 139.055 279.78 138.641 279.614 138.09C279.449 137.483 279.366 136.793 279.366 136.021V85.7908C279.366 85.0184 279.449 84.3564 279.614 83.8047C279.835 83.253 280.193 82.8393 280.69 82.5634C281.242 82.2324 282.069 82.0669 283.172 82.0669C284.221 82.0669 284.993 82.2324 285.49 82.5634C286.041 82.8393 286.4 83.253 286.565 83.8047C286.731 84.3564 286.814 85.046 286.814 85.8735V136.104C286.814 136.876 286.731 137.538 286.565 138.09C286.4 138.641 286.041 139.055 285.49 139.331C284.938 139.662 284.138 139.828 283.09 139.828ZM283.421 113.678V106.727H318.011L317.928 113.678H283.421Z" fill="black"/>
<path d="M383.83 82.0669C384.547 82.0669 385.126 82.1497 385.567 82.3152C386.064 82.4807 386.45 82.8117 386.726 83.3082C387.002 83.7496 387.14 84.4943 387.14 85.5425C387.14 86.5355 386.974 87.2803 386.643 87.7768C386.367 88.2733 385.981 88.6043 385.485 88.7698C384.988 88.8801 384.381 88.9353 383.664 88.9353H366.534V136.186C366.534 136.904 366.424 137.538 366.203 138.09C366.038 138.641 365.679 139.055 365.128 139.331C364.631 139.662 363.859 139.828 362.811 139.828C361.707 139.828 360.88 139.662 360.328 139.331C359.832 139.055 359.501 138.641 359.335 138.09C359.225 137.483 359.17 136.821 359.17 136.104V88.9353H341.792C341.075 88.9353 340.468 88.8801 339.971 88.7698C339.475 88.6043 339.089 88.2733 338.813 87.7768C338.537 87.2803 338.399 86.5355 338.399 85.5425C338.399 84.4943 338.509 83.7496 338.73 83.3082C339.006 82.8117 339.392 82.4807 339.888 82.3152C340.44 82.1497 341.047 82.0669 341.709 82.0669H383.83Z" fill="black"/>
<path d="M417.746 140.655C415.65 140.655 413.664 140.407 411.788 139.91C409.967 139.414 408.285 138.752 406.74 137.924C405.25 137.042 403.926 136.076 402.768 135.028C401.609 133.98 400.699 132.932 400.037 131.883C399.43 131.001 399.044 130.284 398.879 129.732C398.713 129.125 398.741 128.546 398.961 127.994C399.237 127.442 399.761 126.836 400.534 126.174C401.416 125.511 402.189 125.208 402.851 125.263C403.513 125.263 404.119 125.511 404.671 126.008C405.278 126.505 405.885 127.167 406.492 127.994C407.871 129.87 409.554 131.249 411.54 132.132C413.526 132.959 415.484 133.373 417.415 133.373C419.897 133.373 422.104 133.042 424.035 132.38C425.966 131.718 427.483 130.725 428.586 129.401C429.745 128.022 430.324 126.256 430.324 124.105C430.324 122.339 429.883 120.85 429 119.636C428.117 118.422 426.931 117.402 425.442 116.574C423.952 115.692 422.297 114.947 420.477 114.34C418.656 113.678 416.808 113.044 414.932 112.437C413.443 111.94 411.981 111.389 410.547 110.782C409.112 110.12 407.761 109.403 406.492 108.63C405.223 107.803 404.092 106.837 403.099 105.734C402.161 104.631 401.416 103.334 400.865 101.845C400.368 100.355 400.12 98.6172 400.12 96.6312C400.12 93.597 400.837 90.9214 402.271 88.6043C403.761 86.2873 405.83 84.4943 408.478 83.2255C411.126 81.9014 414.188 81.2394 417.663 81.2394C419.704 81.2394 421.58 81.4325 423.29 81.8187C425 82.2049 426.518 82.7289 427.842 83.391C429.166 83.9978 430.297 84.6598 431.234 85.377C432.172 86.039 432.889 86.6734 433.386 87.2803C434.379 88.3285 434.931 89.2112 435.041 89.9283C435.151 90.6455 434.738 91.5282 433.8 92.5764C432.917 93.5694 432.062 94.0935 431.234 94.1487C430.407 94.2038 429.497 93.8177 428.504 92.9901C427.455 91.7765 426.352 90.8386 425.194 90.1766C424.09 89.5146 422.904 89.0732 421.635 88.8526C420.422 88.5767 419.07 88.4388 417.58 88.4388C416.146 88.4388 414.794 88.6319 413.526 89.0181C412.312 89.3491 411.236 89.8732 410.298 90.5903C409.416 91.3075 408.726 92.1902 408.229 93.2384C407.733 94.2314 407.485 95.3899 407.485 96.714C407.485 98.2035 407.871 99.4723 408.643 100.521C409.471 101.569 410.547 102.479 411.871 103.251C413.195 103.969 414.684 104.631 416.339 105.237C417.994 105.789 419.732 106.341 421.552 106.892C423.539 107.499 425.497 108.244 427.428 109.127C429.359 109.954 431.097 111.002 432.641 112.271C434.186 113.485 435.427 115.03 436.365 116.905C437.303 118.781 437.772 121.098 437.772 123.856C437.772 126.615 437.22 129.042 436.117 131.139C435.069 133.235 433.607 135 431.731 136.435C429.855 137.814 427.704 138.862 425.276 139.579C422.904 140.296 420.394 140.655 417.746 140.655Z" fill="black"/>
</g>
<defs>
<clipPath id="clip0_344_248">
<rect width="382" height="115" fill="white" transform="translate(59 29)"/>
</clipPath>
</defs>
</svg>
